<svg width="31" height="31" viewBox="0 0 31 31" fill="none" xmlns="http://www.w3.org/2000/svg">
    <path fill-rule="evenodd" clip-rule="evenodd" d="M15.5 2.58333C8.36632 2.58333 2.58333 8.36632 2.58333 15.5C2.58333 22.6337 8.36632 28.4167 15.5 28.4167C22.6337 28.4167 28.4167 22.6337 28.4167 15.5C28.4167 8.36632 22.6337 2.58333 15.5 2.58333ZM0 15.5C0 6.93961 6.93961 0 15.5 0C24.0604 0 31 6.93961 31 15.5C31 24.0604 24.0604 31 15.5 31C6.93961 31 0 24.0604 0 15.5Z" fill="#828282"/>
    <path fill-rule="evenodd" clip-rule="evenodd" d="M12.3891 29.3671C12.2641 29.2059 12.2641 27.7692 12.3891 25.0571C11.051 25.1033 10.2056 25.0105 9.8529 24.7786C9.32377 24.4306 8.79412 23.3577 8.32409 22.6016C7.85411 21.8454 6.81103 21.7259 6.38978 21.5569C5.96855 21.3878 5.86281 20.6988 7.55051 21.2199C9.23813 21.741 9.32048 23.1601 9.8529 23.4919C10.3853 23.8238 11.6581 23.6786 12.2351 23.4128C12.812 23.1469 12.7696 22.1572 12.8724 21.7651C13.0025 21.3991 12.5441 21.3179 12.534 21.315C11.9707 21.315 9.01177 20.6714 8.19905 17.8061C7.38627 14.9408 8.43323 13.0679 8.99175 12.2628C9.36414 11.7261 9.3312 10.5822 8.89294 8.831C10.484 8.62769 11.7119 9.12847 12.5764 10.3335C12.5773 10.3404 13.7099 9.65993 15.5001 9.65993C17.2901 9.65993 17.9252 10.2142 18.4153 10.3335C18.9054 10.4528 19.2974 8.22417 22.3243 8.831C21.6923 10.0731 21.1631 11.6251 21.567 12.2628C21.971 12.9005 23.5563 14.9283 22.5825 17.8061C21.9333 19.7247 20.6571 20.8943 18.7538 21.315C18.5356 21.3846 18.4265 21.497 18.4265 21.652C18.4265 21.8845 18.7216 21.9099 19.1466 22.9993C19.43 23.7255 19.4504 25.7998 19.208 29.2221C18.5938 29.3784 18.116 29.4834 17.7746 29.5371C17.1692 29.6322 16.5118 29.6855 15.866 29.7061C15.2202 29.7267 14.9959 29.7244 14.1029 29.6413C13.5077 29.5859 12.9364 29.4945 12.3891 29.3671Z" fill="#828282"/>
</svg>
