<svg width="57" height="70" viewBox="0 0 57 70" fill="none" xmlns="http://www.w3.org/2000/svg">
    <mask id="mask0_9_47" style="mask-type:luminance" maskUnits="userSpaceOnUse" x="0" y="0" width="57" height="70">
        <path d="M56.588 0H0V69.165H56.588V0Z" fill="white"/>
    </mask>
    <g mask="url(#mask0_9_47)">
        <path d="M54.0161 0V19.115H22.0361C21.6501 19.1107 21.267 19.1828 20.9089 19.3274C20.5509 19.4719 20.225 19.6859 19.9501 19.957C19.7265 20.1784 19.544 20.4377 19.4111 20.723C19.7085 15.8809 21.5433 11.2601 24.6486 7.53294C27.7538 3.80578 31.9674 1.16679 36.6761 0H54.0161Z" fill="url(#paint0_linear_9_47)"/>
        <path d="M37.2604 48.209C36.9966 53.0754 35.1809 57.7293 32.0794 61.4887C28.978 65.248 24.754 67.9151 20.0264 69.099H3.48242V49.988H34.5444C34.9396 49.9932 35.3319 49.9183 35.6974 49.768C36.047 49.6254 36.3643 49.4139 36.6304 49.146C36.898 48.8765 37.1118 48.5585 37.2604 48.209Z" fill="url(#paint1_linear_9_47)"/>
        <path d="M56.5882 47.0601C56.6019 50.0081 56.0132 52.9278 54.8582 55.6401C54.6232 56.1861 54.3652 56.7241 54.0852 57.2481C54.0772 57.2701 54.0692 57.2781 54.0692 57.2931C54.0666 57.3044 54.0614 57.315 54.0542 57.3241C51.6782 61.8158 47.8296 65.3537 43.1542 67.3441C40.4359 68.5161 37.5043 69.1126 34.5442 69.0961H20.0332L20.2002 69.0511C24.8884 67.8376 29.0687 65.1635 32.1358 61.4159C35.203 57.6683 36.9977 53.0417 37.2602 48.2061V48.1981C37.5376 47.4764 37.5429 46.6784 37.2752 45.9531C37.2682 45.9381 37.2602 45.9151 37.2522 45.9001C37.1079 45.5514 36.8966 45.2344 36.6302 44.9671C36.3573 44.6938 36.0316 44.4788 35.673 44.3353C35.3144 44.1917 34.9303 44.1226 34.5442 44.1321H22.0362C21.4142 44.1321 20.7922 44.1101 20.1772 44.0491C20.1552 44.0491 20.1322 44.0411 20.1022 44.0411C17.8046 43.8592 15.5534 43.2955 13.4412 42.3731C8.18555 40.1107 4.00064 35.9147 1.7522 30.6531C1.45612 29.9752 1.19774 29.2815 0.978211 28.5751C0.321895 26.4602 -0.0078969 24.2575 0.000213764 22.0431C-0.012966 19.0884 0.583444 16.1628 1.7522 13.4491C4.01369 8.20359 8.19568 4.0216 13.4412 1.76011C14.9722 1.08979 16.58 0.610842 18.2282 0.33411C18.2892 0.31811 18.3342 0.311104 18.3642 0.303104C18.3793 0.299268 18.3947 0.29692 18.4102 0.296101C19.6084 0.0957257 20.8213 -0.00462338 22.0362 -0.00390239H36.6762C31.9674 1.16289 27.7538 3.80188 24.6486 7.52904C21.5434 11.2562 19.7086 15.877 19.4112 20.7191C19.3792 20.7753 19.3514 20.8338 19.3282 20.8941C19.1784 21.257 19.1036 21.6465 19.1082 22.0391C19.1039 22.4502 19.181 22.858 19.3352 23.2391C19.3513 23.2815 19.3717 23.322 19.3962 23.3601C19.5269 23.6639 19.715 23.9396 19.9502 24.1721C20.224 24.4447 20.5497 24.6596 20.908 24.8042C21.2663 24.9489 21.6499 25.0202 22.0362 25.0141H34.5442C37.498 24.9984 40.4241 25.5843 43.1442 26.7361C48.4329 28.9594 52.6399 33.1664 54.8632 38.4551C55.157 39.1406 55.413 39.8416 55.6302 40.5551C56.2726 42.6634 56.5955 44.8561 56.5882 47.0601Z" fill="url(#paint2_linear_9_47)"/>
        <g style="mix-blend-mode:multiply" opacity="0.16">
            <path d="M37.26 48.209C36.9962 53.0754 35.1805 57.7293 32.0791 61.4887C28.9777 65.248 24.7536 67.9151 20.0261 69.099H15.4141C19.2843 67.2777 22.7009 64.6182 25.4163 61.3134C28.1318 58.0085 30.078 54.141 31.114 49.991H34.5421C34.9373 49.9962 35.3295 49.9213 35.695 49.771C36.0447 49.6284 36.362 49.4169 36.6281 49.149C36.8967 48.8788 37.1112 48.5597 37.26 48.209Z" fill="black"/>
        </g>
        <g style="mix-blend-mode:multiply" opacity="0.16">
            <path d="M40.8331 0C36.5621 3.178 27.8922 10.513 25.7072 19.115H22.0361C21.6501 19.1107 21.267 19.1828 20.9089 19.3274C20.5509 19.4719 20.225 19.6859 19.9501 19.957C19.7265 20.1784 19.544 20.4377 19.4111 20.723C19.7085 15.8809 21.5433 11.2601 24.6486 7.53294C27.7538 3.80578 31.9674 1.16679 36.6761 0H40.8331Z" fill="black"/>
        </g>
        <g style="mix-blend-mode:multiply" opacity="0.25">
            <path d="M54.0166 5.71875V19.1188H27.3086C29.5306 18.8988 31.7606 18.7478 33.9836 18.6408C36.2066 18.5338 38.4366 18.4408 40.6586 18.4058C42.8886 18.3378 45.1116 18.3458 47.3416 18.3228C49.3416 18.3458 51.3236 18.3458 53.3196 18.3908C53.3416 17.5188 53.3576 16.6458 53.3946 15.7668C53.4326 14.6508 53.4706 13.5358 53.5396 12.4208C53.6496 10.1868 53.7966 7.94875 54.0166 5.71875Z" fill="black"/>
        </g>
        <g style="mix-blend-mode:screen" opacity="0.7">
            <path d="M56.5881 47.0604C56.6018 50.0083 56.0131 52.928 54.8581 55.6404C54.6231 56.1864 54.3651 56.7244 54.0851 57.2484C54.1611 57.0434 54.4111 56.3903 54.7851 55.3893C55.3644 53.6871 55.7436 51.9233 55.9151 50.1334C56.0231 48.9479 56.0462 47.7561 55.9841 46.5673C55.908 45.2527 55.7254 43.9464 55.4381 42.6614C55.2893 41.9968 55.1044 41.3408 54.8841 40.6964C54.6261 40.0294 54.3681 39.3533 54.1101 38.6783C53.5312 37.351 52.8195 36.0856 51.9861 34.9014C51.1742 33.7014 50.2354 32.5923 49.1861 31.5933C48.1753 30.6238 47.0785 29.7482 45.9091 28.9773C44.7999 28.257 43.6357 27.6254 42.4271 27.0884C41.3385 26.6199 40.2151 26.2368 39.0671 25.9423C37.3196 25.509 35.5329 25.2524 33.7341 25.1764C32.4141 25.0764 31.6631 25.0174 31.6631 25.0174H34.5381C37.4919 25.0016 40.418 25.5875 43.1381 26.7394C48.4268 28.9627 52.6338 33.1697 54.8571 38.4583C55.1509 39.1438 55.4069 39.8449 55.6241 40.5584C56.2682 42.6654 56.5931 44.857 56.5881 47.0604Z" fill="white"/>
        </g>
        <g style="mix-blend-mode:multiply" opacity="0.25">
            <path d="M17.6364 69.096H3.48242V54.646C3.65642 55.852 3.7624 57.046 3.8764 58.257C3.9674 59.463 4.0514 60.669 4.1044 61.867C4.1804 63.073 4.19542 64.28 4.24042 65.486L4.27142 68.307C5.18842 68.322 6.10641 68.322 7.02441 68.345C8.20041 68.391 9.37642 68.406 10.5594 68.482C12.9184 68.596 15.2774 68.77 17.6364 69.096Z" fill="black"/>
        </g>
        <g style="mix-blend-mode:screen" opacity="0.7">
            <path d="M20.1022 44.041C17.8046 43.8591 15.5534 43.2953 13.4412 42.373C8.18555 40.1106 4.00064 35.9146 1.7522 30.653C1.45612 29.9751 1.19774 29.2814 0.978211 28.575C0.321895 26.4601 -0.0078969 24.2574 0.000213764 22.043C-0.012966 19.0883 0.583444 16.1627 1.7522 13.449C4.01369 8.20346 8.19568 4.02147 13.4412 1.75998C14.9722 1.08966 16.58 0.610716 18.2282 0.333984C17.4014 0.532809 16.5859 0.775821 15.7852 1.06198C10.3533 3.00203 5.85914 6.92976 3.2092 12.053C1.45677 15.4172 0.631857 19.1874 0.819214 22.976C0.87798 24.8797 1.2076 26.7653 1.79819 28.576C1.97219 29.038 2.13921 29.501 2.30621 29.956L2.42722 30.297L2.45819 30.381C2.46518 30.3952 2.47024 30.4104 2.47321 30.426L2.54919 30.593L2.83719 31.238C3.22026 32.0729 3.65858 32.8814 4.1492 33.658C5.07932 35.1366 6.17653 36.5033 7.41919 37.731C8.54709 38.8299 9.78188 39.8134 11.1052 40.667C12.2349 41.3838 13.4196 42.0101 14.6482 42.54C15.6069 42.9477 16.5959 43.28 17.6062 43.534C18.4291 43.7449 19.2622 43.9141 20.1022 44.041Z" fill="white"/>
        </g>
        <g style="mix-blend-mode:screen" opacity="0.7">
            <path d="M36.6761 0C31.9674 1.16679 27.7538 3.80578 24.6486 7.53294C21.5433 11.2601 19.7085 15.8809 19.4111 20.723C19.3791 20.7792 19.3513 20.8377 19.3281 20.898L19.3891 20.708C19.3661 20.108 19.3661 19.502 19.3661 18.895C19.4111 18.289 19.4791 17.682 19.5401 17.067C19.6401 16.467 19.7751 15.867 19.8891 15.267C20.0411 14.667 20.2461 14.091 20.4201 13.492C20.6201 12.908 20.8681 12.346 21.1101 11.77C21.3681 11.209 21.6721 10.67 21.9451 10.116C22.2631 9.578 22.6121 9.06999 22.9451 8.53899C23.3091 8.03899 23.6881 7.54499 24.0681 7.05899C24.4771 6.58899 24.9101 6.14199 25.3271 5.68599C25.7821 5.26199 26.2271 4.83699 26.7001 4.42699L28.1791 3.297C28.6951 2.956 29.2181 2.63699 29.7491 2.31099C30.3031 2.03799 30.8421 1.742 31.3951 1.476L33.1101 0.80899C33.7101 0.63399 34.2931 0.45999 34.8851 0.30899C35.4771 0.18899 36.0771 0.091 36.6761 0Z" fill="white"/>
        </g>
        <g style="mix-blend-mode:screen" opacity="0.7">
            <path d="M37.3974 48.1981C37.4044 48.8201 37.4044 49.4271 37.3894 50.0411C37.3514 50.6561 37.2754 51.2631 37.2074 51.8771C37.1014 52.4838 36.9801 53.0908 36.8434 53.6981C36.6914 54.2981 36.4944 54.8891 36.3194 55.4801C36.1194 56.0721 35.8574 56.6331 35.6194 57.2101C35.3624 57.7791 35.0664 58.3251 34.7774 58.8791C34.4664 59.4171 34.1184 59.9331 33.7844 60.4641C33.4204 60.9721 33.0404 61.4641 32.6614 61.9581C32.2524 62.4291 31.8194 62.8841 31.4024 63.3461C30.9474 63.7791 30.5024 64.2041 30.0294 64.6211L28.5494 65.7591C28.0334 66.1004 27.5101 66.4337 26.9794 66.7591L25.3334 67.6161L23.6114 68.3061L21.8434 68.8221C21.3884 68.9131 20.9434 69.0041 20.4934 69.0801L20.5934 69.0951L20.0694 69.1561C20.0624 69.1641 20.0464 69.1641 20.0394 69.1641L20.0314 69.0951L20.0244 69.0271L20.1984 69.0501C24.8866 67.8366 29.0669 65.1625 32.1341 61.4148C35.2012 57.6672 36.9959 53.0407 37.2584 48.2051V48.1971C37.4056 47.8361 37.4778 47.4489 37.4704 47.0591C37.5254 47.4397 37.5005 47.8276 37.3974 48.1981Z" fill="white"/>
        </g>
    </g>
    <defs>
        <linearGradient id="paint0_linear_9_47" x1="54.0161" y1="10.3615" x2="20.8299" y2="10.3615" gradientUnits="userSpaceOnUse">
            <stop stop-color="#EE0979"/>
            <stop offset="0.322" stop-color="#F32555"/>
            <stop offset="1" stop-color="#FF6A00"/>
        </linearGradient>
        <linearGradient id="paint1_linear_9_47" x1="2.16508" y1="58.654" x2="34.0515" y2="58.654" gradientUnits="userSpaceOnUse">
            <stop stop-color="#EE0979"/>
            <stop offset="0.322" stop-color="#F32555"/>
            <stop offset="1" stop-color="#FF6A00"/>
        </linearGradient>
        <linearGradient id="paint2_linear_9_47" x1="28.2942" y1="-0.556709" x2="28.2942" y2="70.9621" gradientUnits="userSpaceOnUse">
            <stop stop-color="#FCC400"/>
            <stop offset="0.162" stop-color="#FBC000"/>
            <stop offset="0.307" stop-color="#FBB500"/>
            <stop offset="0.446" stop-color="#FBA300"/>
            <stop offset="0.581" stop-color="#FA8900"/>
            <stop offset="0.712" stop-color="#FA6800"/>
            <stop offset="0.842" stop-color="#F93F00"/>
            <stop offset="0.967" stop-color="#F81000"/>
            <stop offset="1" stop-color="#F80300"/>
        </linearGradient>
    </defs>
</svg>
