<svg width="64" height="64" viewBox="0 0 64 64" fill="none" xmlns="http://www.w3.org/2000/svg">
    <path d="M37.3333 26.6667L54.6666 10" stroke="black" stroke-width="5.33333" stroke-linecap="round" stroke-linejoin="round"/>
    <path d="M37.3333 9.3335H54.6666V26.6668" stroke="black" stroke-width="5.33333" stroke-linecap="round" stroke-linejoin="round"/>
    <path d="M19.1677 13.0591C20.1364 13.0591 21.0289 13.5845 21.4992 14.4314L24.7611 20.3072C25.1881 21.0765 25.2083 22.007 24.8147 22.7941L21.6723 29.079C21.6723 29.079 22.5829 33.7609 26.3941 37.5721C30.2055 41.3833 34.8716 42.2782 34.8716 42.2782L41.1555 39.1364C41.9431 38.7425 42.8743 38.7629 43.6439 39.1908L49.5363 42.4668C50.3825 42.9372 50.9072 43.8293 50.9072 44.7974V51.5621C50.9072 55.007 47.7073 57.4952 44.4433 56.3937C37.7393 54.1317 27.3331 49.8248 20.7373 43.2289C14.1415 36.6332 9.83448 26.2269 7.57245 19.523C6.47109 16.2589 8.95921 13.0591 12.4041 13.0591H19.1677Z" fill="white" stroke="black" stroke-width="5.33333" stroke-linejoin="round"/>
</svg>
