<?xml version="1.0" standalone="no"?>
<!DOCTYPE svg PUBLIC "-//W3C//DTD SVG 20010904//EN"
 "http://www.w3.org/TR/2001/REC-SVG-20010904/DTD/svg10.dtd">
<svg version="1.0" xmlns="http://www.w3.org/2000/svg"
 width="1120.000000pt" height="1120.000000pt" viewBox="0 0 1120.000000 1120.000000"
 preserveAspectRatio="xMidYMid meet">
<metadata>
Created by potrace 1.14, written by Peter Selinger 2001-2017
</metadata>
<g transform="translate(0.000000,1120.000000) scale(0.100000,-0.100000)"
fill="#000000" stroke="none">
<path d="M4339 11196 c-2 -2 -40 -7 -84 -10 -44 -4 -93 -9 -110 -11 -125 -17
-139 -19 -195 -29 -19 -4 -48 -9 -65 -12 -16 -3 -50 -10 -75 -15 -25 -6 -53
-12 -63 -14 -10 -2 -27 -7 -37 -10 -17 -5 -36 -10 -86 -20 -11 -3 -68 -21
-125 -40 -57 -20 -111 -38 -119 -40 -47 -11 -272 -109 -385 -168 -88 -45 -98
-51 -117 -66 -10 -8 -18 -10 -18 -6 0 4 -8 2 -17 -6 -17 -13 -42 -28 -88 -53
-92 -50 -389 -265 -471 -341 -6 -5 -46 -41 -89 -80 -129 -116 -262 -256 -360
-380 -21 -27 -44 -54 -50 -60 -6 -5 -22 -26 -35 -45 -13 -19 -27 -37 -30 -40
-3 -3 -27 -39 -55 -80 -27 -41 -53 -77 -56 -80 -3 -3 -9 -12 -12 -20 -4 -8
-15 -27 -25 -41 -33 -51 -112 -191 -112 -200 0 -5 -4 -9 -8 -9 -7 0 -23 -35
-31 -65 -1 -5 -8 -17 -15 -25 -39 -46 -180 -406 -231 -590 -15 -52 -29 -102
-32 -110 -4 -8 -6 -18 -5 -21 1 -4 -3 -22 -9 -40 -5 -19 -11 -45 -14 -59 -3
-14 -7 -36 -10 -50 -9 -43 -23 -127 -30 -185 -3 -21 -7 -51 -10 -65 -26 -143
-27 -744 -1 -860 3 -14 7 -45 10 -70 11 -93 30 -195 56 -306 11 -45 21 -90 23
-100 2 -11 6 -26 9 -34 3 -8 25 -76 48 -150 39 -121 65 -190 118 -315 21 -49
151 -307 179 -355 215 -369 476 -681 789 -945 87 -74 126 -106 155 -125 12 -8
34 -24 48 -36 14 -11 73 -52 131 -90 138 -90 142 -93 160 -101 8 -4 33 -18 55
-31 58 -37 278 -145 370 -182 44 -18 85 -36 90 -40 6 -4 22 -10 37 -14 15 -3
40 -11 55 -18 15 -6 33 -12 38 -14 6 -1 37 -12 70 -24 33 -11 61 -21 62 -21 3
0 5 0 68 -18 61 -17 248 -60 291 -66 22 -3 53 -8 69 -11 17 -3 44 -6 60 -9 17
-2 53 -6 80 -10 28 -3 68 -8 90 -11 87 -9 595 -15 1505 -17 665 -1 961 -5 975
-13 11 -6 50 -25 87 -43 191 -93 286 -330 222 -556 -12 -41 -57 -125 -67 -125
-6 0 -7 -3 -4 -7 4 -3 -4 -16 -18 -28 -13 -13 -21 -26 -18 -29 4 -3 2 -6 -3
-6 -5 0 -22 -11 -38 -25 -16 -14 -35 -25 -43 -25 -7 0 -13 -4 -13 -9 0 -5 -26
-19 -57 -31 -69 -26 -86 -30 -139 -34 -23 -2 -46 -6 -53 -10 -6 -4 -11 -4 -11
1 0 4 -54 8 -120 8 -66 0 -120 -4 -120 -8 0 -5 -5 -5 -12 -1 -17 11 -108 11
-108 1 0 -5 -5 -5 -12 -1 -16 10 -188 11 -188 1 0 -4 -8 -4 -17 1 -10 4 -29 7
-43 5 -14 -2 -31 -3 -37 -3 -19 0 -131 0 -145 0 -7 0 -33 1 -58 3 -25 2 -51
-1 -57 -6 -7 -5 -13 -6 -13 -1 0 11 -71 11 -88 0 -7 -4 -12 -3 -12 1 0 10 -61
10 -78 -1 -7 -4 -12 -3 -12 1 0 10 -61 10 -78 -1 -7 -4 -12 -3 -12 2 0 5 -15
8 -32 5 -18 -2 -40 -4 -48 -4 -8 1 -61 2 -118 3 -56 2 -102 -1 -102 -6 0 -5
-6 -4 -12 1 -7 5 -33 7 -58 6 -58 -4 -57 -4 -107 0 -24 2 -43 -1 -43 -5 0 -5
-10 -4 -21 3 -16 8 -20 8 -14 -1 5 -9 2 -10 -11 -3 -11 5 -37 8 -59 6 -53 -4
-53 -4 -102 0 -24 2 -43 -1 -43 -6 0 -4 -5 -5 -12 -1 -17 11 -78 11 -78 1 0
-4 -5 -5 -12 -1 -17 11 -78 11 -78 1 0 -4 -5 -5 -12 -1 -17 11 -78 11 -78 1 0
-4 -5 -5 -12 -1 -17 11 -208 11 -208 0 0 -5 -6 -4 -12 1 -7 5 -33 7 -58 6 -58
-4 -57 -4 -107 0 -24 2 -43 0 -43 -4 0 -4 -15 -3 -34 1 -19 4 -40 4 -47 -1 -7
-4 -20 -4 -28 0 -9 4 -34 6 -56 4 -53 -4 -53 -4 -102 0 -24 2 -43 -1 -43 -6 0
-4 -6 -5 -12 0 -18 10 -70 10 -85 -1 -7 -4 -13 -5 -13 0 0 5 -29 9 -65 9 -36
0 -65 -4 -65 -8 0 -5 -5 -5 -12 -1 -17 11 -178 11 -178 0 0 -5 -6 -4 -12 1 -7
5 -33 7 -58 6 -58 -4 -57 -4 -107 0 -24 2 -43 -1 -43 -5 0 -5 -10 -4 -21 3
-16 8 -20 8 -14 -1 5 -9 2 -10 -11 -3 -11 5 -37 8 -59 6 -53 -4 -53 -4 -102 0
-24 2 -43 -1 -43 -6 0 -4 -5 -5 -12 -1 -17 11 -78 11 -78 1 0 -4 -5 -5 -12 -1
-17 11 -78 11 -78 1 0 -4 -5 -5 -12 -1 -17 11 -78 11 -78 1 0 -4 -5 -5 -12 -1
-17 11 -208 11 -208 0 0 -5 -6 -4 -12 1 -7 5 -33 7 -58 6 -58 -4 -57 -4 -107
0 -24 2 -43 0 -43 -4 0 -4 -15 -3 -34 1 -19 4 -40 4 -47 -1 -7 -4 -20 -4 -28
0 -21 9 -102 7 -118 -2 -7 -5 -13 -5 -13 0 0 4 -23 8 -52 7 -46 0 -52 -3 -53
-22 -1 -12 3 -22 8 -22 6 0 6 -5 0 -12 -4 -7 -7 -37 -6 -65 3 -67 3 -54 0
-211 -1 -72 2 -132 6 -132 5 0 5 -5 1 -12 -12 -19 -11 -288 1 -288 7 0 6 -3 0
-8 -12 -8 -14 -280 -2 -299 4 -6 4 -14 -1 -16 -6 -5 -8 -403 -2 -417 1 -3 1
-9 0 -15 -8 -28 -5 -232 3 -242 5 -7 6 -13 1 -13 -11 0 -12 -240 -1 -256 3 -6
3 -14 -1 -18 -10 -11 -9 -416 2 -416 5 0 4 -6 -1 -12 -11 -16 -11 -228 0 -245
5 -7 5 -13 0 -13 -4 0 -8 -73 -8 -162 l1 -163 1327 0 c730 0 1327 -4 1327 -8
0 -5 6 -5 13 0 6 4 579 8 1272 9 693 1 1285 5 1315 8 126 13 147 15 190 21
104 13 346 60 387 76 13 5 27 8 31 7 4 -1 14 1 22 4 8 3 62 20 120 38 58 17
112 34 120 37 8 4 17 7 20 7 8 2 72 27 107 42 17 8 35 14 40 14 4 0 25 9 46
20 20 11 37 17 37 14 0 -4 7 0 16 7 9 7 23 14 32 15 8 2 18 8 22 14 4 7 9 10
12 8 5 -3 109 43 118 52 3 3 28 16 55 30 72 36 217 122 239 142 11 10 24 18
29 18 5 0 19 8 32 17 12 10 33 25 45 33 37 25 193 141 225 167 131 109 336
307 430 418 28 32 55 63 60 69 6 6 26 31 45 56 19 25 38 47 42 48 5 2 8 8 8
13 0 8 20 35 48 64 6 8 12 18 12 23 0 6 3 12 8 14 9 4 88 122 141 213 23 39
46 77 51 85 49 77 233 472 245 525 1 5 7 22 13 37 10 25 63 192 68 213 1 6 10
39 19 75 9 36 18 72 20 80 2 8 8 35 14 60 10 44 15 75 26 143 3 17 7 43 10 57
6 33 16 119 31 265 5 49 5 506 0 555 -7 68 -35 287 -42 328 -17 98 -20 110
-48 225 -41 172 -112 398 -151 482 -14 30 -32 76 -34 85 -2 14 -143 293 -176
350 -21 36 -43 74 -49 85 -15 27 -49 79 -56 85 -10 10 -31 45 -36 63 -4 9 -10
17 -15 17 -5 0 -9 7 -9 15 0 8 -3 15 -7 15 -5 0 -21 20 -36 45 -16 25 -33 45
-38 45 -5 0 -9 5 -9 11 0 10 -84 116 -165 208 -82 93 -356 361 -369 361 -3 0
-17 11 -32 25 -68 63 -335 255 -354 255 -5 0 -10 5 -10 10 0 6 -5 10 -10 10
-6 0 -35 16 -65 35 -71 45 -245 135 -245 127 0 -4 -4 -2 -8 4 -4 6 -29 21 -57
33 -27 12 -62 29 -77 37 -15 8 -29 14 -30 13 -2 -1 -19 5 -38 13 -19 9 -62 26
-95 38 -33 12 -69 26 -80 30 -40 17 -243 78 -320 96 -16 4 -34 8 -40 10 -21 5
-71 16 -90 19 -21 4 -113 22 -155 30 -14 3 -45 7 -70 10 -25 3 -61 7 -80 10
-19 2 -35 4 -35 5 0 3 -165 12 -242 14 -46 0 -83 5 -83 9 0 5 -5 5 -11 1 -15
-9 -120 -11 -126 -1 -2 4 -9 4 -16 0 -15 -9 -57 -10 -57 -1 0 4 -10 4 -23 -1
-13 -5 -30 -5 -39 0 -11 6 -19 5 -23 -1 -4 -6 -11 -7 -17 -4 -13 8 -134 8
-147 -1 -6 -3 -11 -1 -11 6 0 7 -4 8 -12 2 -7 -5 -38 -7 -68 -6 -74 4 -72 4
-100 0 -14 -2 -33 1 -42 5 -10 5 -18 5 -18 1 0 -4 -16 -8 -35 -8 -19 0 -35 4
-35 9 0 5 -5 5 -12 0 -16 -11 -119 -11 -136 0 -6 4 -12 4 -12 -1 0 -10 -171
-9 -188 1 -7 4 -12 3 -12 -1 0 -5 -26 -7 -57 -6 -67 4 -69 4 -143 0 -30 -1
-61 2 -67 7 -8 5 -13 5 -13 -1 0 -5 -33 -7 -72 -6 -96 4 -90 4 -118 0 -14 -2
-33 1 -42 5 -10 5 -18 5 -18 1 0 -4 -16 -8 -35 -8 -19 0 -35 4 -35 9 0 5 -5 5
-12 0 -16 -11 -119 -11 -136 0 -6 4 -12 3 -12 -1 0 -8 -131 -8 -230 1 -76 7
-188 53 -219 90 -8 9 -18 16 -23 16 -18 0 -104 117 -124 170 -21 54 -25 70
-30 105 -8 70 -9 135 -2 135 4 0 5 6 2 14 -3 8 0 34 7 57 7 24 13 47 13 51 1
4 7 13 14 19 6 7 12 20 12 29 0 25 71 109 140 165 38 31 149 75 200 80 25 2
45 4 45 5 0 1 1021 0 1045 -1 13 -1 356 0 405 0 37 1 230 1 240 0 9 -1 353 0
400 0 37 1 230 1 240 0 9 -1 353 0 400 0 39 1 230 1 240 0 8 -1 105 -1 240 1
54 0 231 -1 240 -1 8 -1 105 -1 240 1 54 0 231 -1 240 -1 8 -1 105 -1 240 1
28 0 228 0 240 -1 6 0 168 1 361 2 193 1 356 -1 363 -5 12 -8 13 -3 15 119 1
44 -2 86 -7 93 -5 6 -6 12 -1 12 10 0 11 366 1 376 -3 4 -3 14 1 23 10 21 9
212 -1 229 -5 6 -5 12 0 12 9 0 10 367 0 376 -3 4 -3 14 1 23 10 21 9 212 -1
229 -5 6 -5 12 0 12 7 0 9 364 3 380 -1 3 -1 10 0 15 7 27 5 192 -2 208 -5 9
-5 17 -1 17 10 0 10 241 -1 258 -4 6 -3 12 1 12 5 0 7 26 6 58 -4 68 -4 41 -1
240 2 89 -1 162 -6 162 -5 0 -4 6 1 13 7 10 9 96 4 180 -1 16 -127 17 -2670
17 -1467 0 -2670 -2 -2672 -4z"/>
</g>
</svg>
